<?xml version="1.0" encoding="UTF-8" standalone="no"?>
<!-- Created with Inkscape (http://www.inkscape.org/) -->

<svg
   xmlns:dc="http://purl.org/dc/elements/1.1/"
   xmlns:cc="http://creativecommons.org/ns#"
   xmlns:rdf="http://www.w3.org/1999/02/22-rdf-syntax-ns#"
   xmlns:svg="http://www.w3.org/2000/svg"
   xmlns="http://www.w3.org/2000/svg"
   xmlns:xlink="http://www.w3.org/1999/xlink"
   xmlns:sodipodi="http://sodipodi.sourceforge.net/DTD/sodipodi-0.dtd"
   xmlns:inkscape="http://www.inkscape.org/namespaces/inkscape"
   width="352.57199mm"
   height="352.57251mm"
   viewBox="0 0 352.57199 352.57251"
   version="1.1"
   id="svg8"
   inkscape:version="0.92.1 r"
   sodipodi:docname="light-button.svg"
   inkscape:export-filename="/home/rania/Gambar/vector/light-button.png"
   inkscape:export-xdpi="281"
   inkscape:export-ydpi="281">
  <sodipodi:namedview
     id="base"
     pagecolor="#ffffff"
     bordercolor="#666666"
     borderopacity="1.0"
     inkscape:pageopacity="0.0"
     inkscape:pageshadow="2"
     inkscape:zoom="0.25667148"
     inkscape:cx="344.00545"
     inkscape:cy="769.58774"
     inkscape:document-units="mm"
     inkscape:current-layer="layer2"
     showgrid="false"
     inkscape:object-nodes="false"
     inkscape:window-width="1366"
     inkscape:window-height="715"
     inkscape:window-x="0"
     inkscape:window-y="24"
     inkscape:window-maximized="1" />
  <defs
     id="defs2">
    <linearGradient
       inkscape:collect="always"
       id="linearGradient1226">
      <stop
         style="stop-color:#ffffff;stop-opacity:1;"
         offset="0"
         id="stop1222" />
      <stop
         style="stop-color:#ffffff;stop-opacity:0"
         offset="1"
         id="stop1224" />
    </linearGradient>
    <linearGradient
       inkscape:collect="always"
       id="linearGradient1211">
      <stop
         style="stop-color:#ffffff;stop-opacity:1;"
         offset="0"
         id="stop1207" />
      <stop
         style="stop-color:#ffffff;stop-opacity:0;"
         offset="1"
         id="stop1209" />
    </linearGradient>
    <filter
       inkscape:collect="always"
       style="color-interpolation-filters:sRGB"
       id="filter1117"
       x="-0.076799587"
       width="1.1535992"
       y="-0.076800413"
       height="1.1536008">
      <feGaussianBlur
         inkscape:collect="always"
         stdDeviation="6.132425"
         id="feGaussianBlur1119" />
    </filter>
    <filter
       inkscape:collect="always"
       style="color-interpolation-filters:sRGB"
       id="filter1201"
       x="-0.084"
       width="1.168"
       y="-0.084"
       height="1.168">
      <feGaussianBlur
         inkscape:collect="always"
         stdDeviation="2.9593031"
         id="feGaussianBlur1203" />
    </filter>
    <radialGradient
       inkscape:collect="always"
       xlink:href="#linearGradient1211"
       id="radialGradient1213"
       cx="106.73934"
       cy="156.47949"
       fx="106.73934"
       fy="156.47949"
       r="176.286"
       gradientTransform="matrix(1.2545673,0.75470088,-0.55262789,0.91865381,59.30259,-67.827261)"
       gradientUnits="userSpaceOnUse" />
    <linearGradient
       inkscape:collect="always"
       xlink:href="#linearGradient1226"
       id="linearGradient1228"
       x1="76.796448"
       y1="130.42975"
       x2="253.0675"
       y2="267.52945"
       gradientUnits="userSpaceOnUse" />
    <filter
       id="filter2174"
       inkscape:label="Noise Fill"
       style="color-interpolation-filters:sRGB;">
      <feTurbulence
         id="feTurbulence2158"
         result="turbulence"
         seed="360"
         numOctaves="1"
         baseFrequency="5 5.27323"
         type="fractalNoise" />
      <feComposite
         id="feComposite2160"
         result="composite1"
         operator="in"
         in2="turbulence"
         in="SourceGraphic" />
      <feColorMatrix
         id="feColorMatrix2162"
         result="color"
         values="1 0 0 0 0 0 1 0 0 0 0 0 1 0 0 0 0 0 3.81 -1.37 " />
      <feFlood
         id="feFlood2164"
         result="flood"
         flood-color="rgb(28,28,28)"
         flood-opacity="0.623529" />
      <feMerge
         id="feMerge2170"
         result="merge">
        <feMergeNode
           id="feMergeNode2166"
           in="flood" />
        <feMergeNode
           id="feMergeNode2168"
           in="color" />
      </feMerge>
      <feComposite
         id="feComposite2172"
         result="composite2"
         operator="in"
         in2="SourceGraphic" />
    </filter>
    <clipPath
       id="clipPath2260"
       clipPathUnits="userSpaceOnUse">
      <rect
         y="84.474419"
         x="38.224022"
         height="61.158436"
         width="135.05821"
         id="rect2262"
         style="opacity:0;fill:#666666;fill-opacity:0.81176471;stroke:none;stroke-width:1.99999988;stroke-opacity:1;paint-order:normal" />
    </clipPath>
  </defs>
  <metadata
     id="metadata5">
    <rdf:RDF>
      <cc:Work
         rdf:about="">
        <dc:format>image/svg+xml</dc:format>
        <dc:type
           rdf:resource="http://purl.org/dc/dcmitype/StillImage" />
        <dc:title />
      </cc:Work>
    </rdf:RDF>
  </metadata>
  <g
     inkscape:label="Layer 1"
     inkscape:groupmode="layer"
     id="layer1"
     transform="translate(69.546662,19.806773)"
     style="display:inline">
    <rect
       style="opacity:1;fill:#3498db;fill-opacity:1;fill-rule:nonzero;stroke:none;stroke-width:1;stroke-linecap:round;stroke-linejoin:round;stroke-miterlimit:4;stroke-dasharray:none;stroke-opacity:1;paint-order:fill markers stroke"
       id="rect10"
       width="352.57199"
       height="352.57196"
       x="-69.546661"
       y="-19.80649" />
    <path
       style="color:#000000;font-style:normal;font-variant:normal;font-weight:normal;font-stretch:normal;font-size:medium;line-height:normal;font-family:sans-serif;font-variant-ligatures:normal;font-variant-position:normal;font-variant-caps:normal;font-variant-numeric:normal;font-variant-alternates:normal;font-feature-settings:normal;text-indent:0;text-align:start;text-decoration:none;text-decoration-line:none;text-decoration-style:solid;text-decoration-color:#000000;letter-spacing:normal;word-spacing:normal;text-transform:none;writing-mode:lr-tb;direction:ltr;text-orientation:mixed;dominant-baseline:auto;baseline-shift:baseline;text-anchor:start;white-space:normal;shape-padding:0;clip-rule:nonzero;display:inline;overflow:visible;visibility:visible;opacity:1;isolation:auto;mix-blend-mode:normal;color-interpolation:sRGB;color-interpolation-filters:linearRGB;solid-color:#000000;solid-opacity:1;vector-effect:none;fill:url(#radialGradient1213);fill-opacity:1;fill-rule:evenodd;stroke:none;stroke-width:0.5;stroke-linecap:butt;stroke-linejoin:miter;stroke-miterlimit:4;stroke-dasharray:none;stroke-dashoffset:0;stroke-opacity:1;color-rendering:auto;image-rendering:auto;shape-rendering:auto;text-rendering:auto;enable-background:accumulate"
       d="m -39.075939,-19.806773 v 30.47072 h -30.470723 v 0.508179 h 30.470723 v 23.75259 h -30.470723 v 0.507651 h 30.470723 v 23.752589 h -30.470723 v 0.508176 h 30.470723 v 23.752059 h -30.470723 v 0.508186 h 30.470723 v 23.752583 h -30.470723 v 0.50766 h 30.470723 v 23.75259 h -30.470723 v 0.50764 h 30.470723 v 23.7505 h -30.470723 v 0.50817 h 30.470723 v 23.75259 h -30.470723 v 0.50766 h 30.470723 v 23.75258 h -30.470723 v 0.50766 h 30.470723 v 23.75259 h -30.470723 v 0.50817 h 30.470723 v 23.75206 h -30.470723 v 0.50819 h 30.470723 v 23.75257 h -30.470723 v 0.50766 h 30.470723 v 23.7526 h -30.470723 v 0.50817 h 30.470723 v 30.47073 h 0.507652 v -30.47073 h 23.752588 v 30.47073 h 0.508178 V 302.29502 H 9.4445422 v 30.47073 H 9.9527201 V 302.29502 H 33.70531 v 30.47073 h 0.507652 V 302.29502 H 57.96555 v 30.47073 h 0.507652 v -30.47073 h 23.752589 v 30.47073 h 0.508179 v -30.47073 h 23.75206 v 30.47073 h 0.50818 v -30.47073 h 23.75259 v 30.47073 h 0.50766 v -30.47073 h 23.75258 v 30.47073 h 0.50818 v -30.47073 h 23.75206 v 30.47073 h 0.50818 v -30.47073 h 23.75259 v 30.47073 h 0.50766 v -30.47073 h 23.75258 v 30.47073 h 0.50765 v -30.47073 h 23.7526 v 30.47073 h 0.50817 v -30.47073 h 30.46863 v -0.50817 h -30.46863 v -23.7526 h 30.46863 v -0.50766 h -30.46863 v -23.75257 h 30.46863 v -0.50819 h -30.46863 v -23.75206 h 30.46863 v -0.50817 h -30.46863 v -23.75259 h 30.46863 v -0.50766 h -30.46863 v -23.75258 h 30.46863 v -0.50766 h -30.46863 v -23.75259 h 30.46863 v -0.50817 h -30.46863 v -23.7505 h 30.46863 v -0.50764 h -30.46863 v -23.75259 h 30.46863 v -0.50766 H 252.55671 V 83.953377 h 30.46863 V 83.445191 H 252.55671 V 59.693132 h 30.46863 V 59.184956 H 252.55671 V 35.432367 h 30.46863 v -0.507651 h -30.46863 v -23.75259 h 30.46863 v -0.508179 h -30.46863 v -30.47072 h -0.50817 v 30.47072 h -23.7526 v -30.47072 h -0.50765 v 30.47072 h -23.75258 v -30.47072 h -0.50766 v 30.47072 h -23.75259 v -30.47072 h -0.50818 v 30.47072 h -23.75206 v -30.47072 h -0.50818 v 30.47072 h -23.75258 v -30.47072 h -0.50766 v 30.47072 h -23.75259 v -30.47072 h -0.50818 v 30.47072 H 82.73397 v -30.47072 h -0.508179 v 30.47072 H 58.473202 v -30.47072 H 57.96555 v 30.47072 H 34.212962 v -30.47072 H 33.70531 v 30.47072 H 9.9527201 v -30.47072 H 9.4445422 v 30.47072 H -14.307521 v -30.47072 h -0.508178 v 30.47072 h -23.752588 v -30.47072 z m 0.507652,30.978899 h 23.752588 v 23.75259 h -23.752588 z m 24.260766,0 H 9.4445422 v 23.75259 H -14.307521 Z m 24.2602411,0 H 33.70531 v 23.75259 H 9.9527201 Z m 24.2602419,0 H 57.96555 v 23.75259 H 34.212962 Z m 24.26024,0 h 23.752589 v 23.75259 H 58.473202 Z m 24.260768,0 h 23.75206 v 23.75259 H 82.73397 Z m 24.26024,0 h 23.75259 v 23.75259 h -23.75259 z m 24.26025,0 h 23.75258 v 23.75259 h -23.75258 z m 24.26076,0 h 23.75206 v 23.75259 h -23.75206 z m 24.26024,0 h 23.75259 v 23.75259 h -23.75259 z m 24.26025,0 h 23.75258 v 23.75259 h -23.75258 z m 24.26023,0 h 23.7526 v 23.75259 h -23.7526 z M -38.568287,35.432367 h 23.752588 v 23.752589 h -23.752588 z m 24.260766,0 H 9.4445422 V 59.184956 H -14.307521 Z m 24.2602411,0 H 33.70531 V 59.184956 H 9.9527201 Z m 24.2602419,0 H 57.96555 V 59.184956 H 34.212962 Z m 24.26024,0 H 82.225791 V 59.184956 H 58.473202 Z m 24.260768,0 h 23.75206 V 59.184956 H 82.73397 Z m 24.26024,0 h 23.75259 v 23.752589 h -23.75259 z m 24.26025,0 h 23.75258 v 23.752589 h -23.75258 z m 24.26076,0 h 23.75206 v 23.752589 h -23.75206 z m 24.26024,0 h 23.75259 v 23.752589 h -23.75259 z m 24.26025,0 h 23.75258 v 23.752589 h -23.75258 z m 24.26023,0 h 23.7526 v 23.752589 h -23.7526 z M -38.568287,59.693132 h 23.752588 v 23.752059 h -23.752588 z m 24.260766,0 H 9.4445422 V 83.445191 H -14.307521 Z m 24.2602411,0 H 33.70531 V 83.445191 H 9.9527201 Z m 24.2602419,0 H 57.96555 V 83.445191 H 34.212962 Z m 24.26024,0 H 82.225791 V 83.445191 H 58.473202 Z m 24.260768,0 h 23.75206 V 83.445191 H 82.73397 Z m 24.26024,0 h 23.75259 v 23.752059 h -23.75259 z m 24.26025,0 h 23.75258 v 23.752059 h -23.75258 z m 24.26076,0 h 23.75206 v 23.752059 h -23.75206 z m 24.26024,0 h 23.75259 v 23.752059 h -23.75259 z m 24.26025,0 h 23.75258 v 23.752059 h -23.75258 z m 24.26023,0 h 23.7526 v 23.752059 h -23.7526 z M -38.568287,83.953377 h 23.752588 v 23.752583 h -23.752588 z m 24.260766,0 H 9.4445422 V 107.70596 H -14.307521 Z m 24.2602411,0 H 33.70531 V 107.70596 H 9.9527201 Z m 24.2602419,0 H 57.96555 V 107.70596 H 34.212962 Z m 24.26024,0 H 82.225791 V 107.70596 H 58.473202 Z m 24.260768,0 h 23.75206 V 107.70596 H 82.73397 Z m 24.26024,0 h 23.75259 v 23.752583 h -23.75259 z m 24.26025,0 h 23.75258 v 23.752583 h -23.75258 z m 24.26076,0 h 23.75206 v 23.752583 h -23.75206 z m 24.26024,0 h 23.75259 v 23.752583 h -23.75259 z m 24.26025,0 h 23.75258 v 23.752583 h -23.75258 z m 24.26023,0 h 23.7526 v 23.752583 h -23.7526 z M -38.568287,108.21362 h 23.752588 v 23.75259 h -23.752588 z m 24.260766,0 H 9.4445422 v 23.75259 H -14.307521 Z m 24.2602411,0 H 33.70531 v 23.75259 H 9.9527201 Z m 24.2602419,0 H 57.96555 v 23.75259 H 34.212962 Z m 24.26024,0 h 23.752589 v 23.75259 H 58.473202 Z m 24.260768,0 h 23.75206 v 23.75259 H 82.73397 Z m 24.26024,0 h 23.75259 v 23.75259 h -23.75259 z m 24.26025,0 h 23.75258 v 23.75259 h -23.75258 z m 24.26076,0 h 23.75206 v 23.75259 h -23.75206 z m 24.26024,0 h 23.75259 v 23.75259 h -23.75259 z m 24.26025,0 h 23.75258 v 23.75259 h -23.75258 z m 24.26023,0 h 23.7526 v 23.75259 h -23.7526 z m -266.864227,24.26023 h 23.752588 v 23.7505 h -23.752588 z m 24.260766,0 H 9.4445422 v 23.7505 H -14.307521 Z m 24.2602411,0 H 33.70531 v 23.7505 H 9.9527201 Z m 24.2602419,0 H 57.96555 v 23.7505 H 34.212962 Z m 24.26024,0 h 23.752589 v 23.7505 H 58.473202 Z m 24.260768,0 h 23.75206 v 23.7505 H 82.73397 Z m 24.26024,0 h 23.75259 v 23.7505 h -23.75259 z m 24.26025,0 h 23.75258 v 23.7505 h -23.75258 z m 24.26076,0 h 23.75206 v 23.7505 h -23.75206 z m 24.26024,0 h 23.75259 v 23.7505 h -23.75259 z m 24.26025,0 h 23.75258 v 23.7505 h -23.75258 z m 24.26023,0 h 23.7526 v 23.7505 h -23.7526 z m -266.864227,24.25867 h 23.752588 v 23.75259 h -23.752588 z m 24.260766,0 H 9.4445422 v 23.75259 H -14.307521 Z m 24.2602411,0 H 33.70531 v 23.75259 H 9.9527201 Z m 24.2602419,0 H 57.96555 v 23.75259 H 34.212962 Z m 24.26024,0 h 23.752589 v 23.75259 H 58.473202 Z m 24.260768,0 h 23.75206 v 23.75259 H 82.73397 Z m 24.26024,0 h 23.75259 v 23.75259 h -23.75259 z m 24.26025,0 h 23.75258 v 23.75259 h -23.75258 z m 24.26076,0 h 23.75206 v 23.75259 h -23.75206 z m 24.26024,0 h 23.75259 v 23.75259 h -23.75259 z m 24.26025,0 h 23.75258 v 23.75259 h -23.75258 z m 24.26023,0 h 23.7526 v 23.75259 h -23.7526 z m -266.864227,24.26025 h 23.752588 v 23.75258 h -23.752588 z m 24.260766,0 H 9.4445422 v 23.75258 H -14.307521 Z m 24.2602411,0 H 33.70531 v 23.75258 H 9.9527201 Z m 24.2602419,0 H 57.96555 v 23.75258 H 34.212962 Z m 24.26024,0 h 23.752589 v 23.75258 H 58.473202 Z m 24.260768,0 h 23.75206 v 23.75258 H 82.73397 Z m 24.26024,0 h 23.75259 v 23.75258 h -23.75259 z m 24.26025,0 h 23.75258 v 23.75258 h -23.75258 z m 24.26076,0 h 23.75206 v 23.75258 h -23.75206 z m 24.26024,0 h 23.75259 v 23.75258 h -23.75259 z m 24.26025,0 h 23.75258 v 23.75258 h -23.75258 z m 24.26023,0 h 23.7526 v 23.75258 h -23.7526 z m -266.864227,24.26024 h 23.752588 v 23.75259 h -23.752588 z m 24.260766,0 H 9.4445422 V 229.0056 H -14.307521 Z m 24.2602411,0 H 33.70531 V 229.0056 H 9.9527201 Z m 24.2602419,0 H 57.96555 V 229.0056 H 34.212962 Z m 24.26024,0 H 82.225791 V 229.0056 H 58.473202 Z m 24.260768,0 h 23.75206 V 229.0056 H 82.73397 Z m 24.26024,0 h 23.75259 v 23.75259 h -23.75259 z m 24.26025,0 h 23.75258 v 23.75259 h -23.75258 z m 24.26076,0 h 23.75206 v 23.75259 h -23.75206 z m 24.26024,0 h 23.75259 v 23.75259 h -23.75259 z m 24.26025,0 h 23.75258 v 23.75259 h -23.75258 z m 24.26023,0 h 23.7526 v 23.75259 h -23.7526 z m -266.864227,24.26076 h 23.752588 v 23.75206 h -23.752588 z m 24.260766,0 H 9.4445422 v 23.75206 H -14.307521 Z m 24.2602411,0 H 33.70531 v 23.75206 H 9.9527201 Z m 24.2602419,0 H 57.96555 v 23.75206 H 34.212962 Z m 24.26024,0 h 23.752589 v 23.75206 H 58.473202 Z m 24.260768,0 h 23.75206 v 23.75206 H 82.73397 Z m 24.26024,0 h 23.75259 v 23.75206 h -23.75259 z m 24.26025,0 h 23.75258 v 23.75206 h -23.75258 z m 24.26076,0 h 23.75206 v 23.75206 h -23.75206 z m 24.26024,0 h 23.75259 v 23.75206 h -23.75259 z m 24.26025,0 h 23.75258 v 23.75206 h -23.75258 z m 24.26023,0 h 23.7526 v 23.75206 h -23.7526 z m -266.864227,24.26025 h 23.752588 v 23.75257 h -23.752588 z m 24.260766,0 H 9.4445422 v 23.75257 H -14.307521 Z m 24.2602411,0 H 33.70531 v 23.75257 H 9.9527201 Z m 24.2602419,0 H 57.96555 v 23.75257 H 34.212962 Z m 24.26024,0 h 23.752589 v 23.75257 H 58.473202 Z m 24.260768,0 h 23.75206 v 23.75257 H 82.73397 Z m 24.26024,0 h 23.75259 v 23.75257 h -23.75259 z m 24.26025,0 h 23.75258 v 23.75257 h -23.75258 z m 24.26076,0 h 23.75206 v 23.75257 h -23.75206 z m 24.26024,0 h 23.75259 v 23.75257 h -23.75259 z m 24.26025,0 h 23.75258 v 23.75257 h -23.75258 z m 24.26023,0 h 23.7526 v 23.75257 h -23.7526 z m -266.864227,24.26023 h 23.752588 v 23.7526 h -23.752588 z m 24.260766,0 H 9.4445422 v 23.7526 H -14.307521 Z m 24.2602411,0 H 33.70531 v 23.7526 H 9.9527201 Z m 24.2602419,0 H 57.96555 v 23.7526 H 34.212962 Z m 24.26024,0 h 23.752589 v 23.7526 H 58.473202 Z m 24.260768,0 h 23.75206 v 23.7526 H 82.73397 Z m 24.26024,0 h 23.75259 v 23.7526 h -23.75259 z m 24.26025,0 h 23.75258 v 23.7526 h -23.75258 z m 24.26076,0 h 23.75206 v 23.7526 h -23.75206 z m 24.26024,0 h 23.75259 v 23.7526 h -23.75259 z m 24.26025,0 h 23.75258 v 23.7526 h -23.75258 z m 24.26023,0 h 23.7526 v 23.7526 h -23.7526 z"
       id="path12"
       inkscape:connector-curvature="0" />
  </g>
  <g
     inkscape:groupmode="layer"
     id="layer2"
     inkscape:label="Layer 2">
    <ellipse
       ry="131.90216"
       rx="131.90358"
       cy="179.12103"
       cx="179.1208"
       id="ellipse1249"
       style="opacity:0.034;fill:#020202;fill-opacity:1;fill-rule:nonzero;stroke:#ffffff;stroke-width:0.5;stroke-linecap:round;stroke-linejoin:round;stroke-miterlimit:4;stroke-dasharray:none;stroke-opacity:1;paint-order:fill markers stroke" />
    <ellipse
       style="opacity:0.15500004;fill:#ffffff;fill-opacity:1;fill-rule:nonzero;stroke:#ffffff;stroke-width:0.5;stroke-linecap:round;stroke-linejoin:round;stroke-miterlimit:4;stroke-dasharray:none;stroke-opacity:1;paint-order:fill markers stroke"
       id="path219"
       cx="176.286"
       cy="176.28625"
       rx="129.06877"
       ry="129.06738" />
    <ellipse
       ry="129.06738"
       rx="129.06877"
       cy="176.28625"
       cx="176.286"
       id="ellipse1026"
       style="opacity:1;fill:none;fill-opacity:1;fill-rule:nonzero;stroke:#ffffff;stroke-width:1;stroke-linecap:round;stroke-linejoin:round;stroke-miterlimit:4;stroke-dasharray:none;stroke-opacity:1;paint-order:fill markers stroke" />
    <ellipse
       style="opacity:1;fill:none;fill-opacity:1;fill-rule:nonzero;stroke:#ffffff;stroke-width:1;stroke-linecap:round;stroke-linejoin:round;stroke-miterlimit:4;stroke-dasharray:none;stroke-opacity:1;paint-order:fill markers stroke"
       id="ellipse1061"
       cx="176.286"
       cy="176.28625"
       rx="129.06877"
       ry="129.06738" />
    <path
       style="opacity:0.201;fill:url(#linearGradient1228);fill-opacity:1;fill-rule:nonzero;stroke:none;stroke-width:0.5;stroke-linecap:round;stroke-linejoin:round;stroke-miterlimit:4;stroke-dasharray:none;stroke-opacity:1;paint-order:fill markers stroke"
       d="M 85.976114,84.113973 A 129.06877,129.06739 0 0 0 47.217399,176.28638 129.06877,129.06739 0 0 0 176.28589,305.35349 129.06877,129.06739 0 0 0 254.876,278.56143 c -0.15636,-1.89196 -0.34352,-3.78088 -0.58285,-5.66304 -0.25957,-2.04131 -0.56768,-4.07627 -0.92421,-6.10245 -0.35653,-2.02621 -0.76143,-4.04383 -1.21426,-6.05115 -0.45283,-2.00732 -0.95354,-4.00413 -1.50202,-5.98881 -0.54847,-1.98469 -1.14494,-3.95721 -1.7884,-5.91551 -0.64345,-1.95831 -1.3338,-3.90257 -2.07157,-5.83074 -0.73777,-1.92818 -1.52285,-3.84022 -2.35429,-5.73452 -0.83143,-1.89429 -1.70936,-3.77062 -2.6338,-5.62729 -0.92443,-1.85666 -1.89516,-3.69379 -2.91193,-5.50907 -1.01677,-1.81529 -2.07978,-3.6088 -3.18823,-5.37894 -1.10846,-1.77015 -2.26231,-3.51701 -3.46179,-5.23828 -1.19947,-1.72126 -2.44459,-3.41705 -3.73442,-5.08568 -1.28984,-1.66863 -2.62477,-3.30986 -4.00431,-4.92211 -1.37954,-1.61224 -2.80333,-3.19542 -4.2719,-4.74753 -1.46858,-1.5521 -2.98163,-3.07327 -4.53859,-4.56149 -1.55695,-1.48822 -3.15783,-2.94342 -4.80251,-4.364 -1.64467,-1.42058 -3.33333,-2.80679 -5.06506,-4.15598 -1.73174,-1.34919 -3.50674,-2.66152 -5.32488,-3.93558 -1.29567,-0.90793 -2.60252,-1.78793 -3.91954,-2.64067 -1.31702,-0.85274 -2.64443,-1.67813 -3.98139,-2.47617 -1.33697,-0.79804 -2.68318,-1.56877 -4.03868,-2.31259 -1.35549,-0.74383 -2.72013,-1.46075 -4.09274,-2.15085 -1.37262,-0.69009 -2.75345,-1.35361 -4.14178,-1.99047 -1.38831,-0.63686 -2.78405,-1.24735 -4.18667,-1.83147 -1.40262,-0.58411 -2.81196,-1.14198 -4.22746,-1.67384 -1.4155,-0.53186 -2.83714,-1.03751 -4.26411,-1.5176 v 4.7e-4 c -1.42013,-0.48259 -2.83477,-0.99054 -4.2435,-1.52401 -1.40872,-0.53347 -2.81135,-1.09265 -4.20729,-1.67751 -1.39594,-0.58487 -2.7852,-1.19515 -4.16698,-1.83193 -1.38177,-0.63678 -2.7563,-1.29989 -4.12252,-1.9891 -1.36622,-0.6892 -2.72422,-1.40457 -4.0735,-2.14672 -1.34928,-0.74214 -2.68984,-1.51102 -4.0208,-2.30663 -1.33097,-0.79561 -2.65227,-1.61788 -3.96353,-2.46747 -1.31126,-0.84958 -2.61242,-1.72651 -3.90259,-2.63059 -1.8304,-1.28265 -3.61765,-2.60427 -5.36107,-3.96261 -1.74342,-1.35834 -3.44319,-2.75321 -5.09897,-4.18347 -1.65579,-1.43026 -3.26757,-2.89585 -4.83505,-4.39424 -1.56747,-1.4984 -3.09032,-3.02991 -4.56882,-4.59266 -1.47851,-1.56275 -2.91237,-3.15673 -4.30123,-4.78006 -1.38887,-1.62332 -2.73278,-3.27588 -4.03135,-4.95601 -1.29856,-1.68013 -2.55202,-3.38782 -3.75962,-5.12097 -1.2076,-1.73315 -2.36964,-3.49162 -3.485612,-5.27401 -1.11597,-1.78239 -2.185641,-3.58867 -3.209312,-5.41652 -1.023675,-1.82784 -2.000925,-3.67757 -2.931638,-5.5471 C 92.434519,100.48493 91.55019,98.595652 90.713103,96.688219 89.876017,94.780784 89.08603,92.855397 88.343235,90.913841 87.600439,88.972283 86.90484,87.01468 86.256999,85.04278 86.155981,84.735298 86.074815,84.422151 85.976114,84.113985 Z"
       id="path1071"
       inkscape:connector-curvature="0" />
    <path
       style="opacity:0.15500004;fill:none;fill-opacity:1;fill-rule:nonzero;stroke:none;stroke-width:0.5;stroke-linecap:round;stroke-linejoin:round;stroke-miterlimit:4;stroke-dasharray:none;stroke-opacity:1;paint-order:fill markers stroke"
       d="m 85.976114,84.113973 c 0.0987,0.308166 0.179867,0.621314 0.280885,0.928795 0.647841,1.9719 1.34344,3.929503 2.086236,5.871061 0.742795,1.941556 1.532782,3.866943 2.369868,5.774378 0.837087,1.907433 1.721416,3.796713 2.652125,5.666243 0.930713,1.86953 1.907963,3.71925 2.931638,5.5471 1.023671,1.82785 2.093342,3.63413 3.209312,5.41652 1.115972,1.78239 2.278012,3.54086 3.485612,5.27401 1.2076,1.73315 2.46106,3.44084 3.75962,5.12097 1.29857,1.68013 2.64248,3.33268 4.03135,4.95601 1.38886,1.62333 2.82272,3.21731 4.30123,4.78006 1.4785,1.56275 3.00135,3.09426 4.56882,4.59265 1.56748,1.4984 3.17926,2.96399 4.83505,4.39425 1.65578,1.43026 3.35555,2.82513 5.09897,4.18347 1.74342,1.35834 3.53067,2.67996 5.36107,3.96261 1.29017,0.90408 2.59133,1.781 3.90259,2.63059 1.31126,0.84959 2.63256,1.67186 3.96353,2.46747 1.33096,0.79561 2.67152,1.56449 4.0208,2.30663 1.34928,0.74215 2.70728,1.45752 4.0735,2.14672 1.36622,0.68921 2.74075,1.35232 4.12252,1.9891 1.38178,0.63678 2.77104,1.24706 4.16698,1.83193 1.39594,0.58486 2.79857,1.14404 4.20729,1.67751 1.40873,0.53347 2.82337,1.04142 4.2435,1.52401 v -4.7e-4 c 1.42697,0.48009 2.84861,0.98574 4.26411,1.51759 1.4155,0.53186 2.82484,1.08974 4.22746,1.67385 1.40262,0.58412 2.79836,1.19461 4.18667,1.83147 1.38833,0.63686 2.76916,1.30037 4.14178,1.99047 1.37261,0.6901 2.73725,1.40702 4.09274,2.15085 1.3555,0.74382 2.70171,1.51455 4.03868,2.31259 1.33696,0.79803 2.66437,1.62343 3.98139,2.47617 1.31702,0.85274 2.62387,1.73274 3.91954,2.64067 1.81814,1.27405 3.59314,2.58639 5.32488,3.93558 1.73173,1.34919 3.42039,2.73539 5.06506,4.15598 1.64468,1.42058 3.24556,2.87578 4.80251,4.364 1.55696,1.48822 3.07001,3.00938 4.53859,4.56149 1.46857,1.55211 2.89236,3.13529 4.2719,4.74753 1.37954,1.61224 2.71447,3.25347 4.00431,4.92211 1.28983,1.66863 2.53495,3.36442 3.73442,5.08568 1.19948,1.72127 2.35333,3.46812 3.46179,5.23827 1.10845,1.77015 2.17146,3.56366 3.18823,5.37895 1.01677,1.81528 1.9875,3.6524 2.91193,5.50907 0.92444,1.85666 1.80237,3.733 2.6338,5.62729 0.83144,1.8943 1.61652,3.80634 2.35429,5.73452 0.73777,1.92817 1.42812,3.87243 2.07157,5.83074 0.64346,1.9583 1.23993,3.93082 1.7884,5.91551 0.54848,1.98468 1.04919,3.98149 1.50202,5.98881 0.45283,2.00732 0.85773,4.02494 1.21426,6.05115 0.35653,2.02618 0.66464,4.06114 0.92421,6.10245 0.23933,1.88216 0.42649,3.77108 0.58285,5.66304 a 129.06877,129.06739 0 0 0 0.82524,-0.59019 c -0.15009,-1.73098 -0.31474,-3.46053 -0.53381,-5.18328 -0.26142,-2.0555 -0.57162,-4.10435 -0.93064,-6.14461 -0.35901,-2.04028 -0.767,-4.07202 -1.22296,-6.0933 -0.45597,-2.02126 -0.96031,-4.03203 -1.51256,-6.03051 -0.55225,-1.99848 -1.15244,-3.98484 -1.80031,-5.95675 -0.64787,-1.97192 -1.34341,-3.92949 -2.08624,-5.87106 -0.74282,-1.94157 -1.53276,-3.86693 -2.36987,-5.77438 -0.83711,-1.90745 -1.72139,-3.79716 -2.65212,-5.6667 -0.93074,-1.86954 -1.90794,-3.71924 -2.93164,-5.54711 -1.02369,-1.82786 -2.09378,-3.63365 -3.20977,-5.41605 -1.11599,-1.7824 -2.27799,-3.54131 -3.48561,-5.27447 -1.20762,-1.73316 -2.46058,-3.44083 -3.75917,-5.12097 -1.29858,-1.68014 -2.64246,-3.33268 -4.03134,-4.95601 -1.38888,-1.62334 -2.82317,-3.21731 -4.30169,-4.78006 -1.47851,-1.56276 -3.00134,-3.09426 -4.56882,-4.59266 -1.56749,-1.4984 -3.17926,-2.96398 -4.83505,-4.39424 -1.65579,-1.43026 -3.35554,-2.82513 -5.09897,-4.18347 -1.74343,-1.35834 -3.53067,-2.67997 -5.36107,-3.96261 -1.29814,-0.90966 -2.60741,-1.79161 -3.92687,-2.64617 -1.31947,-0.85456 -2.64889,-1.68171 -3.98828,-2.48167 -1.33938,-0.79997 -2.68855,-1.57268 -4.04646,-2.31855 -1.35791,-0.74588 -2.7246,-1.46497 -4.09962,-2.15726 -1.37502,-0.69229 -2.75837,-1.35768 -4.1491,-1.99689 -1.39073,-0.63921 -2.78897,-1.25217 -4.19401,-1.8388 -1.40503,-0.58663 -2.81685,-1.14707 -4.23479,-1.68163 -1.41793,-0.53457 -2.84201,-1.04331 -4.27144,-1.5263 -1.41765,-0.47971 -2.82989,-0.985 -4.23616,-1.51577 -1.40627,-0.53076 -2.80647,-1.08693 -4.19997,-1.66926 -1.3935,-0.58233 -2.7803,-1.19065 -4.15964,-1.82506 -1.37934,-0.6344 -2.7514,-1.29478 -4.1152,-1.98176 -1.36379,-0.68698 -2.71931,-1.4007 -4.06616,-2.14077 -1.34686,-0.74006 -2.68495,-1.50656 -4.01347,-2.30022 -1.32853,-0.79365 -2.6474,-1.61422 -3.9562,-2.46197 -1.30881,-0.84774 -2.60756,-1.72274 -3.89526,-2.62509 -1.81813,-1.27405 -3.59313,-2.58684 -5.32487,-3.93603 -1.73173,-1.34919 -3.42039,-2.73494 -5.06507,-4.15552 -1.64467,-1.42058 -3.24556,-2.87579 -4.80251,-4.364 -1.55695,-1.48822 -3.06956,-3.00939 -4.53812,-4.5615 -1.46857,-1.5521 -2.89284,-3.13529 -4.27236,-4.74752 -1.37953,-1.61224 -2.71449,-3.25349 -4.00431,-4.92211 -1.28982,-1.66862 -2.53451,-3.36443 -3.73396,-5.08569 -1.19947,-1.72125 -2.35381,-3.46767 -3.46225,-5.23781 -1.108438,-1.77014 -2.171019,-3.56413 -3.187777,-5.3794 -1.016755,-1.81527 -1.987517,-3.65196 -2.911933,-5.50862 -0.924415,-1.85665 -1.802384,-3.733004 -2.633797,-5.627287 -0.831414,-1.894283 -1.616536,-3.806352 -2.354291,-5.734514 -0.737752,-1.928165 -1.428141,-3.872447 -2.071571,-5.83074 -0.146834,-0.446888 -0.266367,-0.901553 -0.408267,-1.349889 a 129.06877,129.06739 0 0 0 -0.70977,0.698771 z"
       id="ellipse1068"
       inkscape:connector-curvature="0" />
    <ellipse
       style="opacity:0.232;fill:#000000;fill-opacity:1;fill-rule:nonzero;stroke:none;stroke-width:0.5434311;stroke-linecap:round;stroke-linejoin:round;stroke-miterlimit:4;stroke-dasharray:none;stroke-opacity:1;paint-order:fill markers stroke;filter:url(#filter1117)"
       id="ellipse1079"
       cx="176.286"
       cy="176.28625"
       rx="95.819656"
       ry="95.818626"
       transform="matrix(0.92007986,0,0,0.92007986,14.088805,14.088823)" />
    <ellipse
       ry="84.9617"
       rx="84.962616"
       cy="176.28625"
       cx="176.286"
       id="ellipse1075"
       style="opacity:1;fill:#ecf0f1;fill-opacity:1;fill-rule:nonzero;stroke:none;stroke-width:0.5;stroke-linecap:round;stroke-linejoin:round;stroke-miterlimit:4;stroke-dasharray:none;stroke-opacity:1;paint-order:fill markers stroke" />
    <ellipse
       style="opacity:1;fill:#d7ddde;fill-opacity:1;fill-rule:nonzero;stroke:#bdc3c7;stroke-width:2;stroke-linecap:round;stroke-linejoin:round;stroke-miterlimit:4;stroke-dasharray:none;stroke-opacity:1;paint-order:fill markers stroke"
       id="ellipse1077"
       cx="176.286"
       cy="176.28625"
       rx="69.881287"
       ry="69.880524" />
    <path
       sodipodi:type="star"
       style="opacity:0.63399999;fill:#ffffff;fill-opacity:1;fill-rule:nonzero;stroke:none;stroke-width:1.38895106;stroke-linecap:round;stroke-linejoin:round;stroke-miterlimit:4;stroke-dasharray:none;stroke-opacity:1;paint-order:fill markers stroke;filter:url(#filter1201)"
       id="path1131"
       sodipodi:sides="9"
       sodipodi:cx="73.414726"
       sodipodi:cy="74.760002"
       sodipodi:r1="43.091908"
       sodipodi:r2="5.5070233"
       sodipodi:arg1="0.78539816"
       sodipodi:arg2="1.134464"
       inkscape:flatsided="false"
       inkscape:rounded="0"
       inkscape:randomized="0"
       d="M 103.88531,105.23058 75.742095,79.75106 77.170434,117.68793 71.989404,80.079378 48.698224,110.05883 68.903637,77.918701 31.79114,85.913009 67.928659,74.280034 34.360195,56.548575 69.520673,70.865949 55.203299,35.705471 72.934757,69.273935 84.567732,33.136416 76.573425,70.248913 108.71355,50.043499 78.734102,73.33468 116.34266,78.515709 78.405784,77.087371 Z"
       inkscape:transform-center-x="1.4997654"
       inkscape:transform-center-y="-1.4997654"
       transform="matrix(0.71996778,0,0,0.71996778,33.866635,29.749336)" />
    <path
       transform="matrix(0.19797114,0,0,0.19797114,71.517972,68.331408)"
       inkscape:transform-center-y="-0.41239394"
       inkscape:transform-center-x="0.41239392"
       d="M 103.88531,105.23058 75.742095,79.75106 77.170434,117.68793 71.989404,80.079378 48.698224,110.05883 68.903637,77.918701 31.79114,85.913009 67.928659,74.280034 34.360195,56.548575 69.520673,70.865949 55.203299,35.705471 72.934757,69.273935 84.567732,33.136416 76.573425,70.248913 108.71355,50.043499 78.734102,73.33468 116.34266,78.515709 78.405784,77.087371 Z"
       inkscape:randomized="0"
       inkscape:rounded="0"
       inkscape:flatsided="false"
       sodipodi:arg2="1.134464"
       sodipodi:arg1="0.78539816"
       sodipodi:r2="5.5070233"
       sodipodi:r1="43.091908"
       sodipodi:cy="74.760002"
       sodipodi:cx="73.414726"
       sodipodi:sides="9"
       id="path1205"
       style="opacity:0.63399999;fill:#ffffff;fill-opacity:1;fill-rule:nonzero;stroke:none;stroke-width:5.0512414;stroke-linecap:round;stroke-linejoin:round;stroke-miterlimit:4;stroke-dasharray:none;stroke-opacity:1;paint-order:fill markers stroke;filter:url(#filter1201)"
       sodipodi:type="star" />
    <path
       id="path3148"
       transform="scale(0.26458333)"
       d="M 629.76172 581.97852 C 613.20179 583.30332 599.12314 586.77972 587.53125 592.41016 L 587.5293 592.41211 C 559.37907 606.65378 545.30469 631.32565 545.30469 666.43164 L 545.30469 666.43555 L 545.30469 726.04883 L 545.30469 726.05273 C 545.30556 734.33122 548.78204 740.78763 555.73633 745.42383 C 555.7372 745.4244 555.7394 745.42525 555.74023 745.42578 C 556.47582 745.9161 557.22671 746.37405 557.98828 746.8125 C 558.48335 747.12679 558.98367 747.42935 559.49023 747.7207 C 559.97473 748.02795 560.4635 748.32604 560.95898 748.61133 C 561.44504 748.91986 561.93646 749.21748 562.43359 749.50391 C 562.93024 749.81935 563.43319 750.12366 563.94141 750.41602 C 564.43505 750.72905 564.93439 751.03202 565.43945 751.32227 C 565.92572 751.6303 566.41672 751.92891 566.91406 752.21484 C 567.40227 752.52423 567.89516 752.82423 568.39453 753.11133 C 568.87896 753.41832 569.36786 753.71495 569.86328 754 C 570.34611 754.30617 570.83438 754.6004 571.32812 754.88477 C 571.82189 755.19813 572.32098 755.50046 572.82617 755.79102 C 573.3182 756.10285 573.81499 756.40611 574.31836 756.69531 C 574.80273 757.00195 575.29175 757.29927 575.78711 757.58398 C 576.2685 757.88885 576.75386 758.18554 577.24609 758.46875 C 577.73006 758.77553 578.2199 759.07059 578.71484 759.35547 C 579.19784 759.66172 579.68576 759.95775 580.17969 760.24219 C 580.65755 760.54532 581.14035 760.83737 581.62891 761.11914 C 582.12481 761.43414 582.62538 761.73927 583.13281 762.03125 C 583.61496 762.33682 584.10267 762.63023 584.5957 762.91406 C 585.07241 763.21632 585.55367 763.50806 586.04102 763.78906 C 586.53683 764.10387 587.03758 764.40742 587.54492 764.69922 C 588.02101 765.00078 588.50158 765.29189 588.98828 765.57227 C 589.47137 765.87869 589.95911 766.17439 590.45312 766.45898 C 590.94066 766.76823 591.43296 767.06651 591.93164 767.35352 C 592.40919 767.65612 592.89068 767.94919 593.37891 768.23047 C 593.85592 768.533 594.3385 768.82422 594.82617 769.10547 C 595.31669 769.41685 595.81266 769.71699 596.31445 770.00586 C 596.79323 770.30924 597.27612 770.60281 597.76562 770.88477 C 598.23913 771.18494 598.71717 771.47469 599.20117 771.75391 C 599.68874 772.06343 600.18293 772.36116 600.68164 772.64844 C 601.16236 772.95317 601.64713 773.24813 602.13867 773.53125 C 602.61056 773.83035 603.08799 774.11821 603.57031 774.39648 C 604.05695 774.70539 604.54914 775.00427 605.04688 775.29102 C 605.52273 775.59263 606.00377 775.88362 606.49023 776.16406 C 606.97513 776.47159 607.46502 776.76915 607.96094 777.05469 C 608.43854 777.35721 608.91992 777.65044 609.4082 777.93164 C 609.8896 778.23661 610.37689 778.53115 610.86914 778.81445 C 611.34402 779.11507 611.82316 779.40795 612.30859 779.6875 C 612.78269 779.98778 613.26148 780.27737 613.74609 780.55664 C 614.23094 780.86391 614.72094 781.16198 615.2168 781.44727 C 615.67815 781.73918 616.14392 782.02094 616.61523 782.29297 C 617.10304 782.60254 617.59675 782.90019 618.0957 783.1875 C 618.56171 783.48256 619.03164 783.7682 619.50781 784.04297 C 619.98337 784.34465 620.46501 784.63549 620.95117 784.91602 C 621.42815 785.21855 621.9108 785.51171 622.39844 785.79297 C 622.87304 786.09386 623.35274 786.38424 623.83789 786.66406 C 624.31693 786.96777 624.80122 787.26072 625.29102 787.54297 C 625.76999 787.84633 626.25442 788.13996 626.74414 788.42188 C 627.21021 788.71674 627.68197 789.00276 628.1582 789.27734 C 628.63128 789.57707 629.11019 789.86768 629.59375 790.14648 C 630.06365 790.4442 630.53734 790.73269 631.01758 791.00977 C 631.48945 791.30888 631.96692 791.5967 632.44922 791.875 C 632.9267 792.17771 633.40833 792.47057 633.89648 792.75195 C 634.36773 793.05037 634.84453 793.33757 635.32617 793.61523 C 635.78769 793.90753 636.25312 794.1905 636.72461 794.46289 C 637.2026 794.76618 637.68709 795.05793 638.17578 795.33984 C 638.64186 795.63514 639.11359 795.92032 639.58984 796.19531 C 640.05677 796.49139 640.52871 796.77705 641.00586 797.05273 C 641.48292 797.35541 641.96541 797.6483 642.45312 797.92969 C 642.91988 798.22538 643.39219 798.50983 643.86914 798.78516 C 644.34789 799.0886 644.83083 799.38205 645.32031 799.66406 C 645.78993 799.96115 646.2642 800.24891 646.74414 800.52539 C 647.21257 800.82165 647.68537 801.109 648.16406 801.38477 C 648.62927 801.67899 649.09888 801.96427 649.57422 802.23828 C 650.03623 802.53063 650.50261 802.81353 650.97461 803.08594 C 651.44611 803.38461 651.92239 803.67328 652.4043 803.95117 C 652.86712 804.24407 653.33574 804.5279 653.80859 804.80078 C 654.28323 805.10136 654.76286 805.39235 655.24805 805.67188 C 655.70762 805.96242 656.17118 806.24481 656.64062 806.51562 C 657.10563 806.80997 657.57566 807.09305 658.05078 807.36719 C 658.50827 807.6568 658.97022 807.93697 659.4375 808.20703 C 659.91176 808.5077 660.3902 808.7985 660.875 809.07812 C 661.33784 809.37099 661.80644 809.65488 662.2793 809.92773 C 662.74305 810.22123 663.21173 810.50589 663.68555 810.7793 C 664.14552 811.0704 664.61021 811.35171 665.08008 811.62305 C 665.53997 811.91428 666.00482 812.19533 666.47461 812.4668 C 666.9419 812.76289 667.41506 813.04854 667.89258 813.32422 C 668.36335 813.62222 668.83916 813.91021 669.32031 814.1875 C 669.77461 814.47458 670.23332 814.75367 670.69727 815.02148 C 671.16836 815.31961 671.64352 815.60932 672.125 815.88672 C 672.57845 816.17313 673.03694 816.44958 673.5 816.7168 C 673.95552 817.00493 674.41564 817.28593 674.88086 817.55469 C 675.34261 817.84705 675.80952 818.12796 676.28125 818.40039 C 676.74135 818.69161 677.20577 818.9727 677.67578 819.24414 C 678.13518 819.53489 678.59909 819.81686 679.06836 820.08789 C 679.5245 820.37656 679.9853 820.6546 680.45117 820.92383 C 680.91718 821.2189 681.3871 821.50452 681.86328 821.7793 C 682.32196 822.06929 682.78539 822.35075 683.25391 822.62109 C 683.70373 822.90544 684.15985 823.17986 684.61914 823.44531 C 685.0757 823.73434 685.53759 824.01366 686.00391 824.2832 C 686.46594 824.5757 686.93227 824.86027 687.4043 825.13281 C 687.85237 825.41616 688.3062 825.69048 688.76367 825.95508 C 689.21941 826.24372 689.68103 826.52179 690.14648 826.79102 C 690.61111 827.08527 691.07995 827.37045 691.55469 827.64453 C 692.00233 827.9275 692.45509 828.20254 692.91211 828.4668 C 693.37347 828.75883 693.84118 829.04035 694.3125 829.3125 C 694.75958 829.5951 695.21154 829.86888 695.66797 830.13281 C 696.12362 830.42122 696.58346 830.69974 697.04883 830.96875 C 697.50699 831.25863 697.96951 831.53832 698.4375 831.80859 C 698.89342 832.09677 699.35271 832.37772 699.81836 832.64648 C 700.26324 832.9275 700.71383 833.1984 701.16797 833.46094 C 701.61942 833.74651 702.07612 834.02253 702.53711 834.28906 C 702.99328 834.57762 703.45402 834.85783 703.91992 835.12695 C 704.36867 835.41055 704.82113 835.68638 705.2793 835.95117 C 705.72936 836.23572 706.185 836.50976 706.64453 836.77539 C 707.0944 837.05983 707.54847 837.33602 708.00781 837.60156 C 708.46252 837.88905 708.92234 838.16737 709.38672 838.43555 C 709.82852 838.71458 710.27563 838.98528 710.72656 839.24609 C 711.1771 839.53105 711.63176 839.80627 712.0918 840.07227 C 712.54049 840.35594 712.99306 840.63161 713.45117 840.89648 C 713.89797 841.17892 714.35051 841.45105 714.80664 841.71484 C 715.25979 842.00134 715.71693 842.27956 716.17969 842.54688 C 716.61859 842.82403 717.06186 843.09238 717.50977 843.35156 C 717.95339 843.63214 718.40068 843.90382 718.85352 844.16602 C 719.30662 844.45273 719.7658 844.72856 720.22852 844.99609 C 720.67928 845.2809 721.13348 845.55838 721.59375 845.82422 C 722.0312 846.10032 722.47353 846.36676 722.91992 846.625 C 723.3641 846.90576 723.81223 847.17712 724.26562 847.43945 C 724.71025 847.7205 725.15941 847.99327 725.61328 848.25586 C 726.05871 848.53736 726.50818 848.80929 726.96289 849.07227 C 727.4062 849.35232 727.85414 849.62306 728.30664 849.88477 C 728.74892 850.16415 729.19506 850.43419 729.64648 850.69531 C 730.08872 850.97468 730.53495 851.24671 730.98633 851.50781 C 731.4252 851.78502 731.86853 852.05327 732.31641 852.3125 C 732.75492 852.58963 733.19703 852.85801 733.64453 853.11719 C 734.08989 853.39878 734.5395 853.67052 734.99414 853.93359 C 735.43699 854.21332 735.88392 854.48468 736.33594 854.74609 C 736.76831 855.01904 737.20537 855.28356 737.64648 855.53906 C 738.0824 855.81462 738.52395 856.08008 738.96875 856.33789 C 739.41655 856.62111 739.86899 856.89371 740.32617 857.1582 C 740.7674 857.43675 741.21178 857.70837 741.66211 857.96875 C 742.09209 858.24002 742.52622 858.50379 742.96484 858.75781 C 743.39912 859.03219 743.83815 859.29596 744.28125 859.55273 C 744.71319 859.82576 745.14918 860.0901 745.58984 860.3457 C 746.03057 860.62453 746.47597 860.89362 746.92578 861.1543 C 747.36511 861.43196 747.80945 861.69934 748.25781 861.95898 C 748.69017 862.232 749.12727 862.49638 749.56836 862.75195 C 750.00758 863.02944 750.4502 863.29912 750.89844 863.55859 C 751.33529 863.83431 751.77688 864.10147 752.22266 864.35938 C 752.64548 864.62606 753.07273 864.88475 753.50391 865.13477 C 753.93418 865.40669 754.36967 865.66919 754.80859 865.92383 C 755.24033 866.19679 755.67673 866.46125 756.11719 866.7168 C 756.55343 866.99261 756.99431 867.25954 757.43945 867.51758 C 757.87528 867.79287 758.31506 868.05884 758.75977 868.31641 C 759.19067 868.58832 759.62682 868.85088 760.06641 869.10547 C 760.48903 869.37213 760.91668 869.63086 761.34766 869.88086 C 761.77901 870.15341 762.21424 870.4167 762.6543 870.67188 C 763.08816 870.94589 763.52609 871.21034 763.96875 871.4668 C 764.39716 871.73711 764.82865 872.00072 765.26562 872.25391 C 765.68427 872.51804 766.10832 872.7737 766.53516 873.02148 C 766.96833 873.29526 767.4057 873.56015 767.84766 873.81641 C 768.27427 874.08571 768.70551 874.34534 769.14062 874.59766 C 769.55985 874.86228 769.98272 875.11896 770.41016 875.36719 C 770.8404 875.63913 771.27594 875.90159 771.71484 876.15625 C 772.13708 876.42286 772.56357 876.67972 772.99414 876.92969 C 773.41831 877.19766 773.84672 877.45586 774.2793 877.70703 C 774.71576 877.98275 775.15619 878.24988 775.60156 878.50781 C 776.01421 878.76784 776.43097 879.01952 776.85156 879.26367 C 777.27919 879.53369 777.7103 879.79587 778.14648 880.04883 C 778.56116 880.3104 778.97963 880.56306 779.40234 880.80859 C 779.82671 881.07665 780.25666 881.33469 780.68945 881.58594 C 781.11494 881.85452 781.54456 882.1155 781.97852 882.36719 C 782.4032 882.63501 782.83252 882.89354 783.26562 883.14453 C 783.67846 883.40464 784.09484 883.65813 784.51562 883.90234 C 784.93153 884.16473 785.3514 884.41782 785.77539 884.66406 C 786.19112 884.92648 786.61135 885.17949 787.03516 885.42578 C 787.45709 885.69225 787.88224 885.95132 788.3125 886.20117 C 788.73063 886.465 789.15378 886.71928 789.58008 886.9668 C 789.99325 887.22744 790.41088 887.47989 790.83203 887.72461 C 791.24806 887.98721 791.66768 888.24184 792.0918 888.48828 C 792.51199 888.75348 792.93679 889.00909 793.36523 889.25781 C 793.77953 889.51902 794.19878 889.77238 794.62109 890.01758 C 795.03965 890.28147 795.46193 890.5376 795.88867 890.78516 C 796.29481 891.04097 796.7053 891.28886 797.11914 891.5293 C 797.53661 891.79261 797.95915 892.04787 798.38477 892.29492 C 798.78881 892.54951 799.19576 892.79775 799.60742 893.03711 C 799.84921 893.18969 800.09515 893.33378 800.33984 893.48047 A 264.11825 264.11537 0 0 0 929.79492 678.28906 C 929.6249 678.18826 929.45999 678.07763 929.28711 677.98242 C 928.83953 677.68902 928.38476 677.41103 927.91797 677.1543 C 927.47423 676.86363 927.02316 676.58862 926.56055 676.33398 C 926.11088 676.0392 925.65461 675.75777 925.18555 675.5 C 924.74117 675.20906 924.28948 674.93254 923.82617 674.67773 C 923.38385 674.38788 922.93374 674.11341 922.47266 673.85938 C 922.02132 673.56308 921.56268 673.28242 921.0918 673.02344 C 920.6415 672.72825 920.18458 672.44752 919.71484 672.18945 C 919.2725 671.89972 918.82243 671.62502 918.36133 671.37109 C 917.91041 671.07507 917.4509 670.79393 916.98047 670.53516 C 916.52859 670.23876 916.06912 669.95627 915.59766 669.69727 C 915.15157 669.40496 914.69759 669.12698 914.23242 668.87109 C 913.77982 668.57413 913.31991 668.29265 912.84766 668.0332 C 912.40262 667.74149 911.9484 667.46444 911.48438 667.20898 C 911.02674 666.90841 910.56173 666.62352 910.08398 666.36133 C 909.63332 666.06606 909.17521 665.78544 908.70508 665.52734 C 908.25369 665.23152 907.79514 664.94994 907.32422 664.69141 C 906.87392 664.39622 906.41701 664.11549 905.94727 663.85742 C 905.49466 663.56046 905.03476 663.27898 904.5625 663.01953 C 904.1098 662.72251 903.64814 662.43918 903.17578 662.17969 C 902.72461 661.88366 902.26367 661.60445 901.79297 661.3457 C 901.33773 661.04676 900.87552 660.76293 900.40039 660.50195 C 899.94323 660.2019 899.47722 659.91606 899 659.6543 C 898.54487 659.3559 898.08241 659.07102 897.60742 658.81055 C 897.15167 658.51181 896.68856 658.22751 896.21289 657.9668 C 895.75727 657.66816 895.29389 657.38368 894.81836 657.12305 C 894.36667 656.82699 893.9068 656.54582 893.43555 656.28711 C 892.97784 655.98663 892.51297 655.70156 892.03516 655.43945 C 891.5783 655.13963 891.1136 654.85534 890.63672 654.59375 C 890.18502 654.29731 889.72518 654.01688 889.25391 653.75781 C 888.79248 653.45436 888.32367 653.16676 887.8418 652.90234 C 887.38575 652.60287 886.92132 652.31801 886.44531 652.05664 C 885.98194 651.75215 885.50938 651.4624 885.02539 651.19727 C 884.56462 650.89508 884.09637 650.60706 883.61523 650.34375 C 883.15625 650.04295 882.69012 649.75638 882.21094 649.49414 C 881.75745 649.19687 881.29742 648.91392 880.82422 648.6543 C 880.36341 648.3515 879.89331 648.06466 879.41211 647.80078 C 878.94965 647.49699 878.47909 647.20795 877.99609 646.94336 C 877.53027 646.63763 877.05696 646.34606 876.57031 646.08008 C 876.1134 645.78073 875.64879 645.4955 875.17188 645.23438 C 874.71061 644.93166 874.24144 644.6446 873.75977 644.38086 C 873.29947 644.07876 872.83218 643.79064 872.35156 643.52734 C 871.89021 643.22433 871.41928 642.93784 870.9375 642.67383 C 870.46852 642.36571 869.99205 642.0725 869.50195 641.80469 C 869.04238 641.50343 868.57553 641.21572 868.0957 640.95312 C 867.63481 640.65056 867.16683 640.36327 866.68555 640.09961 C 866.22055 639.79399 865.74748 639.50426 865.26172 639.23828 C 864.79699 638.93296 864.32531 638.64269 863.83984 638.37695 C 863.3742 638.07107 862.90052 637.77982 862.41406 637.51367 C 861.94503 637.20569 861.46866 636.91221 860.97852 636.64453 C 860.51955 636.3436 860.05143 636.05728 859.57227 635.79492 C 859.10308 635.48653 858.62705 635.19187 858.13672 634.92383 C 857.67033 634.61767 857.1943 634.32686 856.70703 634.06055 C 856.24303 633.75601 855.76981 633.46627 855.28516 633.20117 C 854.81468 632.89207 854.33743 632.59666 853.8457 632.32812 C 853.37536 632.01952 852.89782 631.72513 852.40625 631.45703 C 851.94378 631.15391 851.47321 630.86554 850.99023 630.60156 C 850.51804 630.29142 850.03852 629.99585 849.54492 629.72656 C 849.08088 629.42222 848.6097 629.1321 848.125 628.86719 C 847.66218 628.56313 847.19041 628.27457 846.70703 628.00977 C 846.2342 627.69844 845.75213 627.40312 845.25781 627.13281 C 844.7868 626.82314 844.30872 626.52876 843.81641 626.25977 C 843.34668 625.9511 842.86787 625.6569 842.37695 625.38867 C 841.90043 625.07554 841.4163 624.77737 840.91797 624.50586 C 840.45722 624.20378 839.98892 623.91556 839.50781 623.65234 C 839.03238 623.33947 838.54794 623.04094 838.05078 622.76953 C 837.57545 622.45727 837.09273 622.15953 836.5957 621.88867 C 836.12608 621.58062 835.64898 621.2872 835.1582 621.01953 C 834.68598 620.70946 834.20651 620.41375 833.71289 620.14453 C 833.23627 619.83157 832.75233 619.53306 832.25391 619.26172 C 831.78787 618.95616 831.31499 618.66424 830.82812 618.39844 C 830.35093 618.08472 829.86626 617.78564 829.36719 617.51367 C 828.89007 617.20047 828.40522 616.90236 827.90625 616.63086 C 827.43791 616.3238 826.96204 616.03058 826.47266 615.76367 C 825.99857 615.45214 825.51715 615.1551 825.02148 614.88477 C 824.54418 614.57112 824.05778 614.27189 823.55859 614 C 823.08967 613.69219 822.61308 613.39839 822.12305 613.13086 C 821.64468 612.81615 821.1566 612.51689 820.65625 612.24414 C 820.17667 611.92902 819.68916 611.62843 819.1875 611.35547 C 818.71728 611.04695 818.23947 610.75239 817.74805 610.48438 C 817.26768 610.16849 816.77987 609.86733 816.27734 609.59375 C 815.80072 609.28079 815.31678 608.98228 814.81836 608.71094 C 814.34807 608.40213 813.86847 608.10813 813.37695 607.83984 C 812.89593 607.5232 812.4056 607.22146 811.90234 606.94727 C 811.4251 606.63357 810.94053 606.33444 810.44141 606.0625 C 809.96084 605.74654 809.47345 605.44548 808.9707 605.17188 C 808.49246 604.8577 808.00606 604.55937 807.50586 604.28711 C 807.02901 603.97382 806.54554 603.67396 806.04688 603.40234 C 805.56798 603.08745 805.081 602.78847 804.58008 602.51562 C 804.09653 602.19766 803.60561 601.89425 803.09961 601.61914 C 802.6198 601.30408 802.13276 601.00335 801.63086 600.73047 C 801.15376 600.41719 800.66886 600.11923 800.16992 599.84766 C 799.68633 599.5297 799.1955 599.22625 798.68945 598.95117 C 798.21177 598.63744 797.72615 598.33833 797.22656 598.06641 C 796.74585 597.75035 796.25681 597.44752 795.75391 597.17383 C 795.26849 596.85463 794.77563 596.54943 794.26758 596.27344 C 793.79425 595.96265 793.31319 595.66818 792.81836 595.39844 C 792.33154 595.07775 791.83577 594.77134 791.32617 594.49414 C 790.84484 594.17765 790.35515 593.87753 789.85156 593.60352 C 789.36973 593.28658 788.88109 592.98335 788.37695 592.70898 C 787.89287 592.39043 787.40113 592.08807 786.89453 591.8125 C 786.40801 591.49244 785.91356 591.18681 785.4043 590.91016 C 784.92591 590.59582 784.43981 590.29779 783.93945 590.02539 C 783.44913 589.7025 782.95093 589.39401 782.4375 589.11523 C 781.95911 588.80099 781.47301 588.50083 780.97266 588.22852 C 780.48485 587.90735 779.98724 587.60172 779.47656 587.32422 C 778.99071 587.00474 778.4968 586.70002 777.98828 586.42383 C 777.50588 586.10675 777.01646 585.80372 776.51172 585.5293 C 772.92338 583.16789 768.71944 581.97852 763.89453 581.97852 L 629.76172 581.97852 z "
       style="opacity:0.16;fill:#7f8c8d;fill-opacity:1;fill-rule:nonzero;stroke:none;stroke-width:7.55905533;stroke-linecap:round;stroke-linejoin:round;stroke-miterlimit:4;stroke-dasharray:none;stroke-opacity:1;paint-order:fill markers stroke" />
    <path
       id="path4411"
       d="m 166.23105,153.7437 c -4.38148,0.35052 -8.10645,1.27032 -11.17347,2.76004 -7.44854,3.76806 -11.17245,10.29611 -11.17245,19.58485 v 15.77371 c 0,2.19074 0.91982,3.8995 2.76004,5.12631 1.84023,1.22682 3.98783,1.8402 6.44147,1.8402 2.45361,0 4.6002,-0.61338 6.44043,-1.8402 1.84022,-1.22681 2.76004,-2.93557 2.76004,-5.12631 v -15.77371 c 0,-2.62889 1.31506,-3.94291 3.94394,-3.94291 h 35.48931 c 2.19074,0 3.90001,-0.92034 5.12682,-2.76055 1.22682,-1.84023 1.83968,-3.98731 1.83968,-6.44095 0,-2.45363 -0.61286,-4.60022 -1.83968,-6.44044 -1.22681,-1.84023 -2.93608,-2.76004 -5.12682,-2.76004 z"
       style="opacity:1;fill:#667273;fill-opacity:1;fill-rule:nonzero;stroke:none;stroke-width:2;stroke-linecap:round;stroke-linejoin:round;stroke-miterlimit:4;stroke-dasharray:none;stroke-opacity:1;paint-order:fill markers stroke" />
    <path
       style="opacity:0.098;fill:#667273;fill-opacity:1;fill-rule:nonzero;stroke:none;stroke-width:7.55905533;stroke-linecap:round;stroke-linejoin:round;stroke-miterlimit:4;stroke-dasharray:none;stroke-opacity:1;paint-order:fill markers stroke"
       d="M 750.38477 680.67773 C 740.78 680.67773 732.50008 684.15421 725.54492 691.10938 C 718.92092 697.73337 715.60938 705.84641 715.60938 715.45117 C 715.60938 725.05593 718.92092 733.33781 725.54492 740.29297 C 727.74998 742.39304 730.09112 744.15759 732.5625 745.5918 C 732.7366 745.6969 732.90854 745.80645 733.08398 745.9082 C 733.27457 746.02368 733.46405 746.14245 733.65625 746.25391 C 733.8741 746.38628 734.09059 746.52133 734.31055 746.64844 C 734.50962 746.76929 734.70737 746.89331 734.9082 747.00977 C 735.13971 747.15107 735.36962 747.2963 735.60352 747.43164 C 735.83563 747.57327 736.06627 747.71788 736.30078 747.85352 C 736.53331 747.99554 736.76507 748.13938 737 748.27539 C 737.24769 748.42701 737.49372 748.58177 737.74414 748.72656 C 737.9898 748.87696 738.23408 749.03015 738.48242 749.17383 C 738.74434 749.33444 739.00651 749.49547 739.27148 749.64844 C 739.52254 749.80224 739.77153 749.96063 740.02539 750.10742 C 740.29735 750.27444 740.56849 750.44279 740.84375 750.60156 C 741.0948 750.75552 741.34576 750.91166 741.59961 751.05859 C 741.87487 751.22811 742.14909 751.39948 742.42773 751.56055 C 742.70601 751.73185 742.9839 751.90374 743.26562 752.06641 C 743.54209 752.23652 743.81779 752.40872 744.09766 752.57031 C 744.3797 752.744 744.66168 752.91917 744.94727 753.08398 C 745.2334 753.26022 745.51881 753.43836 745.80859 753.60547 C 746.08332 753.77467 746.35863 753.94469 746.63672 754.10547 C 746.92923 754.2862 747.22125 754.4675 747.51758 754.63867 C 747.81911 754.82493 748.12018 755.0114 748.42578 755.1875 C 748.70945 755.36244 748.99203 755.53912 749.2793 755.70508 C 749.58514 755.89424 749.89115 756.08301 750.20117 756.26172 C 750.49195 756.4413 750.78162 756.62283 751.07617 756.79297 C 751.38773 756.98585 751.69974 757.17734 752.01562 757.35938 C 752.30936 757.54089 752.6028 757.72459 752.90039 757.89648 C 753.20662 758.08625 753.51379 758.2758 753.82422 758.45508 C 754.13669 758.64879 754.44879 758.8426 754.76562 759.02539 C 755.08437 759.2229 755.40328 759.41932 755.72656 759.60547 C 756.02893 759.79256 756.33026 759.98133 756.63672 760.1582 C 756.95858 760.3579 757.28093 760.55603 757.60742 760.74414 C 757.91534 760.93495 758.22299 761.12644 758.53516 761.30664 C 758.85541 761.50557 759.17711 761.70319 759.50195 761.89062 C 759.83025 762.09452 760.15907 762.2984 760.49219 762.49023 C 760.80108 762.68179 761.11067 762.8738 761.42383 763.05469 C 761.75718 763.2621 762.09136 763.46715 762.42969 763.66211 C 762.75722 763.86553 763.08563 764.06835 763.41797 764.25977 C 763.73773 764.45833 764.05847 764.65663 764.38281 764.84375 C 764.72279 765.05528 765.06305 765.26626 765.4082 765.46484 C 765.73765 765.66938 766.06804 765.87207 766.40234 766.06445 C 766.7276 766.26651 767.05282 766.46799 767.38281 766.6582 C 767.72163 766.86908 768.06033 767.07932 768.4043 767.27734 C 768.73166 767.48092 769.06042 767.68342 769.39258 767.875 C 769.73028 768.08544 770.0693 768.29453 770.41211 768.49219 C 770.75555 768.7062 771.1005 768.91834 771.44922 769.11914 C 771.78849 769.33036 772.12822 769.53995 772.47266 769.73828 C 772.81469 769.95132 773.15663 770.16335 773.50391 770.36328 C 773.83866 770.57181 774.17389 770.77864 774.51367 770.97461 C 774.86972 771.19685 775.22616 771.41697 775.58789 771.625 C 775.92714 771.83623 776.26692 772.0458 776.61133 772.24414 C 776.96069 772.46202 777.31118 772.67666 777.66602 772.88086 C 778.00564 773.09259 778.34661 773.30315 778.69141 773.50195 C 779.05061 773.72637 779.41039 773.94826 779.77539 774.1582 C 780.12226 774.37447 780.47 774.58824 780.82227 774.79102 C 781.1723 775.0095 781.52337 775.2269 781.87891 775.43164 C 782.23413 775.65349 782.59029 775.87238 782.95117 776.08008 C 783.29892 776.29721 783.64682 776.51323 784 776.7168 C 784.36605 776.94574 784.7334 777.17086 785.10547 777.38477 C 785.45476 777.60276 785.80539 777.81717 786.16016 778.02148 C 786.52653 778.25058 786.89324 778.47737 787.26562 778.69141 C 787.61533 778.9097 787.96707 779.1255 788.32227 779.33008 C 788.68332 779.55598 789.0452 779.77897 789.41211 779.99023 C 789.77566 780.21769 790.14029 780.44168 790.50977 780.6543 C 790.88356 780.8881 791.2586 781.11781 791.63867 781.33594 C 791.9907 781.55562 792.34358 781.77273 792.70117 781.97852 C 793.06742 782.2077 793.43437 782.43431 793.80664 782.64844 C 794.17463 782.87867 794.5439 783.10528 794.91797 783.32031 C 795.28102 783.5474 795.6447 783.77208 796.01367 783.98438 C 796.38359 784.21597 796.7548 784.44391 797.13086 784.66016 C 797.50036 784.89144 797.87046 785.11998 798.24609 785.33594 C 798.61206 785.56503 798.97958 785.78985 799.35156 786.00391 C 799.72468 786.23773 800.09915 786.46736 800.47852 786.68555 C 800.84669 786.91621 801.21558 787.14394 801.58984 787.35938 C 801.97461 787.60066 802.36054 787.83784 802.75195 788.0625 C 803.11347 788.28865 803.47637 788.51118 803.84375 788.72266 C 804.22847 788.96403 804.61449 789.20104 805.00586 789.42578 C 805.37205 789.65505 805.73912 789.88149 806.11133 790.0957 C 806.49045 790.33364 806.87223 790.56728 807.25781 790.78906 C 807.63847 791.02784 808.02104 791.26187 808.4082 791.48438 C 808.78292 791.7193 809.15999 791.95076 809.54102 792.16992 C 809.92358 792.41001 810.30812 792.6455 810.69727 792.86914 C 811.07269 793.10463 811.45027 793.33699 811.83203 793.55664 C 812.2134 793.79615 812.59647 794.03075 812.98438 794.25391 C 813.37496 794.49925 813.76661 794.74056 814.16406 794.96875 C 814.53276 795.19994 814.90449 795.42666 815.2793 795.64258 C 815.67413 795.89099 816.07081 796.13436 816.47266 796.36523 C 816.85301 796.60399 817.23619 796.83806 817.62305 797.06055 C 818.01036 797.30394 818.39891 797.54301 818.79297 797.76953 C 819.18526 798.01601 819.57931 798.25715 819.97852 798.48633 C 820.35499 798.72259 820.73239 798.95545 821.11523 799.17578 C 821.50703 799.42231 821.90207 799.66332 822.30078 799.89258 C 822.69126 800.13809 823.08313 800.37905 823.48047 800.60742 C 823.8813 800.8594 824.2853 801.10398 824.69336 801.33789 C 825.06737 801.57248 825.44196 801.80456 825.82227 802.02344 C 826.22271 802.27558 826.62554 802.52176 827.0332 802.75586 C 827.42665 803.00313 827.82224 803.24474 828.22266 803.47461 C 828.6096 803.71778 828.9989 803.95726 829.39258 804.18359 C 829.78294 804.42928 830.17504 804.66989 830.57227 804.89844 C 830.97117 805.14973 831.37323 805.39552 831.7793 805.62891 C 832.17704 805.87924 832.57756 806.12294 832.98242 806.35547 C 833.37425 806.60199 833.76924 806.84302 834.16797 807.07227 C 834.57074 807.32596 834.97469 807.57511 835.38477 807.81055 C 835.78387 808.06162 836.18552 808.3059 836.5918 808.53906 C 836.98867 808.78871 837.38706 809.03371 837.79102 809.26562 C 838.18511 809.51366 838.58134 809.75577 838.98242 809.98633 C 839.3881 810.24199 839.7959 810.49138 840.20898 810.72852 C 840.60582 810.97832 841.00428 811.223 841.4082 811.45508 C 841.80816 811.7071 842.21002 811.95349 842.61719 812.1875 C 843.02297 812.44331 843.4325 812.69241 843.8457 812.92969 C 844.25067 813.18479 844.65797 813.43328 845.07031 813.66992 C 845.47034 813.92185 845.87206 814.16843 846.2793 814.40234 C 846.68569 814.65853 847.09398 814.90889 847.50781 815.14648 C 847.91409 815.40249 848.32458 815.65125 848.73828 815.88867 C 849.14022 816.14191 849.54392 816.38995 849.95312 816.625 C 850.36395 816.8841 850.77688 817.13686 851.19531 817.37695 C 851.59026 817.62582 851.9867 817.87026 852.38867 818.10156 C 852.81642 818.37187 853.24759 818.63313 853.68359 818.88281 C 854.07324 819.12798 854.46485 819.36762 854.86133 819.5957 C 855.28737 819.86494 855.71617 820.12622 856.15039 820.375 C 856.54684 820.62461 856.94609 820.86964 857.34961 821.10156 C 857.76999 821.36706 858.19275 821.62551 858.62109 821.87109 C 859.02421 822.12517 859.42941 822.37359 859.83984 822.60938 C 860.25176 822.86948 860.66638 823.12229 861.08594 823.36328 C 861.50059 823.62517 861.91744 823.88053 862.33984 824.12305 C 862.7569 824.38634 863.17862 824.64107 863.60352 824.88477 C 864.01132 825.142 864.42064 825.39431 864.83594 825.63281 C 865.25056 825.89475 865.66748 826.15002 866.08984 826.39258 C 866.50881 826.65727 866.9325 826.9133 867.35938 827.1582 C 867.77852 827.42279 868.19988 827.68099 868.62695 827.92578 C 869.03521 828.18333 869.44556 828.43505 869.86133 828.67383 C 870.28052 828.93877 870.70375 829.19627 871.13086 829.44141 C 871.55239 829.70771 871.97671 829.96661 872.40625 830.21289 C 872.43202 830.22916 872.45859 830.24355 872.48438 830.25977 A 264.11825 264.11537 0 0 0 908.28125 770.46094 C 908.15633 770.38674 908.03388 770.30683 907.9082 770.23438 C 907.50222 769.97452 907.08845 769.7299 906.67383 769.49023 C 906.24323 769.21394 905.80752 768.95083 905.36719 768.69727 C 904.97085 768.4439 904.56864 768.20484 904.16406 767.9707 C 903.73667 767.69626 903.30222 767.43564 902.86523 767.18359 C 902.45342 766.92003 902.03595 766.67053 901.61523 766.42773 C 901.20399 766.16442 900.78731 765.91447 900.36719 765.67188 C 899.95904 765.41046 899.54384 765.16287 899.12695 764.92188 C 898.70741 764.6529 898.2823 764.39779 897.85352 764.15039 C 897.45331 763.89431 897.04728 763.65249 896.63867 763.41602 C 896.21636 763.14509 895.78715 762.88774 895.35547 762.63867 C 894.94821 762.3782 894.5351 762.13079 894.11914 761.89062 C 893.70982 761.62868 893.29506 761.38011 892.87695 761.13867 C 892.46909 760.87769 892.05526 760.63124 891.63867 760.39062 C 891.24098 760.13611 890.83763 759.89531 890.43164 759.66016 C 890.01264 759.39136 889.58837 759.13595 889.16016 758.88867 C 888.75855 758.63182 888.34952 758.38946 887.93945 758.15234 C 887.53983 757.89647 887.13456 757.65429 886.72656 757.41797 C 886.31025 757.15102 885.88831 756.89806 885.46289 756.65234 C 885.06454 756.39764 884.66058 756.15714 884.25391 755.92188 C 883.84771 755.66179 883.43633 755.41371 883.02148 755.17383 C 882.6225 754.91853 882.21788 754.67721 881.81055 754.44141 C 881.41021 754.185 881.00445 753.94186 880.5957 753.70508 C 880.18958 753.44488 879.77611 753.19898 879.36133 752.95898 C 878.96754 752.70701 878.56793 752.46932 878.16602 752.23633 C 877.76237 751.97762 877.35165 751.73288 876.93945 751.49414 C 876.53737 751.23669 876.12931 750.99351 875.71875 750.75586 C 875.32541 750.5042 874.92685 750.26592 874.52539 750.0332 C 874.11689 749.77151 873.70241 749.52445 873.28516 749.2832 C 872.90029 749.03731 872.50982 748.80394 872.11719 748.57617 C 871.71397 748.31782 871.30433 748.07242 870.89258 747.83398 C 870.50394 747.58542 870.10945 747.35117 869.71289 747.12109 C 869.31498 746.86619 868.91208 746.62418 868.50586 746.38867 C 868.10843 746.13429 867.70454 745.8952 867.29883 745.66016 C 866.91139 745.41239 866.51836 745.17861 866.12305 744.94922 C 865.72467 744.69409 865.32077 744.45249 864.91406 744.2168 C 864.52781 743.96983 864.13626 743.73652 863.74219 743.50781 C 863.34958 743.25647 862.95148 743.01762 862.55078 742.78516 C 862.15501 742.53191 861.7536 742.29266 861.34961 742.05859 C 860.97129 741.81687 860.58699 741.58945 860.20117 741.36523 C 859.80921 741.11414 859.41174 740.87681 859.01172 740.64453 C 858.62088 740.39439 858.22503 740.15722 857.82617 739.92578 C 857.44517 739.68215 857.05853 739.45243 856.66992 739.22656 C 856.27751 738.97527 855.87901 738.73829 855.47852 738.50586 C 855.10394 738.26641 854.72373 738.04064 854.3418 737.81836 C 853.95296 737.56919 853.55693 737.33416 853.16016 737.10352 C 852.77527 736.85718 852.38485 736.62467 851.99219 736.39648 C 851.60724 736.15024 851.21693 735.91756 850.82422 735.68945 C 850.45279 735.45201 850.07592 735.22837 849.69727 735.00781 C 849.30535 734.75667 848.90779 734.51944 848.50781 734.28711 C 848.12614 734.04323 847.73892 733.81199 847.34961 733.58594 C 846.97962 733.34964 846.60373 733.12775 846.22656 732.9082 C 845.84536 732.66423 845.45914 732.43321 845.07031 732.20703 C 844.70372 731.97261 844.33067 731.75313 843.95703 731.53516 C 843.56882 731.28629 843.17542 731.05071 842.7793 730.82031 C 842.40663 730.58214 842.02839 730.35789 841.64844 730.13672 C 841.27951 729.90083 840.90536 729.67821 840.5293 729.45898 C 840.1504 729.21642 839.76533 728.98866 839.37891 728.76367 C 839.01543 728.53134 838.64579 728.31187 838.27539 728.0957 C 837.90132 727.85611 837.52009 727.63066 837.13867 727.4082 C 836.77188 727.17345 836.39924 726.95264 836.02539 726.73438 C 835.64411 726.49019 835.25609 726.25958 834.86719 726.0332 C 834.50474 725.80179 834.13691 725.58253 833.76758 725.36719 C 833.39682 725.13017 833.02054 724.90574 832.64258 724.68555 C 832.28469 724.45698 831.92124 724.2422 831.55664 724.0293 C 831.19209 723.79603 830.82074 723.57636 830.44922 723.35938 C 830.0836 723.12542 829.71248 722.90509 829.33984 722.6875 C 828.9737 722.45332 828.60169 722.2334 828.22852 722.01562 C 827.87394 721.78903 827.51351 721.57645 827.15234 721.36523 C 826.78845 721.13229 826.41967 720.91204 826.04883 720.69531 C 825.69109 720.46651 825.32734 720.2522 824.96289 720.03906 C 824.59251 719.80209 824.21742 719.5776 823.83984 719.35742 C 823.49823 719.1395 823.15046 718.93608 822.80273 718.73242 C 822.43519 718.49708 822.06213 718.27544 821.6875 718.05664 C 821.33711 717.83292 820.98182 717.62081 820.625 717.41211 C 820.27041 717.18547 819.91001 716.97297 819.54883 716.76172 C 819.19865 716.53796 818.84294 716.32789 818.48633 716.11914 C 818.13525 715.8947 817.77746 715.68396 817.41992 715.47461 C 817.07352 715.25316 816.72184 715.04465 816.36914 714.83789 C 816.02231 714.616 815.66954 714.40834 815.31641 714.20117 C 814.96074 713.97354 814.59863 713.759 814.23633 713.54688 C 813.89455 713.32859 813.54712 713.12391 813.19922 712.91992 C 812.85549 712.70018 812.50617 712.49434 812.15625 712.28906 C 811.81853 712.07312 811.47456 711.86995 811.13086 711.66797 C 810.77722 711.44157 810.41684 711.22866 810.05664 711.01758 C 809.72596 710.80649 809.38914 710.60982 809.05273 710.41211 C 808.71258 710.19447 808.36575 709.99058 808.01953 709.78711 C 807.67236 709.56505 807.32028 709.35574 806.9668 709.14844 C 806.63199 708.93477 806.29186 708.73316 805.95117 708.5332 C 805.61763 708.32028 805.27883 708.11924 804.93945 707.91992 C 804.61005 707.70958 804.27455 707.51348 803.93945 707.31641 C 803.6098 707.10572 803.27481 706.90832 802.93945 706.71094 C 802.60191 706.49511 802.25954 706.29173 801.91602 706.08984 C 801.59418 705.88444 801.26671 705.69274 800.93945 705.5 C 800.60615 705.28692 800.26687 705.08815 799.92773 704.88867 C 799.60961 704.68562 799.28632 704.49537 798.96289 704.30469 C 798.63701 704.09632 798.30606 703.90045 797.97461 703.70508 C 797.64617 703.49521 797.31261 703.29823 796.97852 703.10156 C 796.66584 702.9021 796.34709 702.71681 796.0293 702.5293 C 795.70932 702.3248 795.38394 702.13337 795.05859 701.94141 C 794.74055 701.73825 794.41709 701.54821 794.09375 701.35742 C 793.78606 701.16097 793.4728 700.97784 793.16016 700.79297 C 792.83746 700.5866 792.5098 700.39284 792.18164 700.19922 C 791.8778 700.00541 791.56844 699.8251 791.25977 699.64258 C 790.94983 699.44456 790.63528 699.25853 790.32031 699.07227 C 790.00374 698.87008 789.68119 698.68211 789.35938 698.49219 C 789.06752 698.30626 788.77092 698.13255 788.47461 697.95703 C 788.17589 697.76616 787.87175 697.58816 787.56836 697.4082 C 787.26151 697.212 786.9485 697.02842 786.63672 696.84375 C 786.33886 696.65366 786.03493 696.4761 785.73242 696.29688 C 785.44272 696.11203 785.14762 695.94021 784.85352 695.76562 C 784.56264 695.57982 784.26601 695.40593 783.9707 695.23047 C 783.67838 695.04368 783.38079 694.86969 783.08398 694.69336 C 782.78985 694.50556 782.49007 694.32956 782.19141 694.15234 C 781.91846 693.97839 781.64013 693.81719 781.36328 693.65234 C 781.08037 693.47157 780.79101 693.30379 780.50391 693.13281 C 780.22065 692.95192 779.932 692.7824 779.64453 692.61133 C 779.37239 692.43777 779.09438 692.27778 778.81836 692.11328 C 778.54688 691.94005 778.27143 691.7775 777.99609 691.61328 C 777.72567 691.44073 777.45004 691.28079 777.17578 691.11719 C 776.91393 690.95024 776.6463 690.79528 776.38086 690.63672 C 776.12052 690.47066 775.85568 690.31598 775.5918 690.1582 C 775.33221 689.99265 775.06781 689.83896 774.80469 689.68164 C 774.5611 689.52644 774.3131 689.38231 774.06641 689.23438 C 773.81285 689.07254 773.55379 688.9235 773.29688 688.76953 C 773.05128 688.61307 772.80149 688.46745 772.55273 688.31836 C 772.32674 688.17457 772.09586 688.04184 771.86719 687.9043 C 771.63596 687.75687 771.40005 687.61941 771.16602 687.47852 C 770.94522 687.33786 770.71944 687.20891 770.49609 687.07422 C 770.28142 686.93748 770.06279 686.81079 769.8457 686.67969 C 769.64613 686.55265 769.44189 686.43662 769.24023 686.31445 C 769.05342 686.19549 768.86247 686.0854 768.67383 685.9707 C 768.49838 685.85895 768.31964 685.75447 768.14258 685.64648 C 762.93387 682.33379 757.01373 680.67773 750.38477 680.67773 z "
       id="path4464"
       transform="scale(0.26458333)" />
    <path
       id="path3097"
       d="m 198.43477,180.03254 c -2.54126,0 -4.73199,0.91981 -6.57221,2.76003 -1.7526,1.7526 -2.62878,3.89918 -2.62878,6.44044 0,2.54126 0.87618,4.7325 2.62878,6.57272 1.84022,1.7526 4.03095,2.62878 6.57221,2.62878 2.54126,0 4.68785,-0.87618 6.44044,-2.62878 1.84023,-1.84022 2.76055,-4.03146 2.76055,-6.57272 0,-2.54126 -0.92032,-4.68784 -2.76055,-6.44044 -1.75259,-1.84022 -3.89918,-2.76003 -6.44044,-2.76003 z"
       style="opacity:1;fill:#667273;fill-opacity:1;fill-rule:nonzero;stroke:none;stroke-width:2;stroke-linecap:round;stroke-linejoin:round;stroke-miterlimit:4;stroke-dasharray:none;stroke-opacity:1;paint-order:fill markers stroke" />
    <ellipse
       ry="69.880524"
       rx="69.881287"
       cy="176.28625"
       cx="176.286"
       id="ellipse4399"
       style="opacity:1;fill:none;fill-opacity:1;fill-rule:nonzero;stroke:#bdc3c7;stroke-width:2;stroke-linecap:round;stroke-linejoin:round;stroke-miterlimit:4;stroke-dasharray:none;stroke-opacity:1;paint-order:fill markers stroke" />
  </g>
</svg>
